<svg width="18" height="18" viewBox="0 0 18 18" fill="none" xmlns="http://www.w3.org/2000/svg">
<g clip-path="url(#clip0_333_155)">
<path d="M9 15.75C12.727 15.75 15.75 12.727 15.75 9C15.75 5.27303 12.727 2.25 9 2.25C5.27303 2.25 2.25 5.27303 2.25 9C2.25 12.727 5.27303 15.75 9 15.75ZM8.51784 5.14286C8.51784 4.87767 8.73481 4.66071 9 4.66071C9.26519 4.66071 9.48216 4.87767 9.48216 5.14286V8.76858L11.7121 10.5525C11.9194 10.7188 11.9531 11.0226 11.7868 11.2299C11.6928 11.348 11.553 11.4107 11.4107 11.4107C11.3046 11.4107 11.1986 11.3769 11.1094 11.3046L8.69868 9.37608C8.58537 9.28446 8.51788 9.14707 8.51788 9V5.14286H8.51784Z" fill="#3B0EFF"/>
</g>
<defs>
<clipPath id="clip0_333_155">
<rect width="13.5" height="13.5" fill="white" transform="translate(2.25 2.25)"/>
</clipPath>
</defs>
</svg>
