<svg fill="none" height="24" viewBox="0 0 24 24" width="24" xmlns="http://www.w3.org/2000/svg"><path d="m0 8c0-4.41828 3.58172-8 8-8h8c4.4183 0 8 3.58172 8 8v8c0 4.4183-3.5817 8-8 8h-8c-4.41828 0-8-3.5817-8-8z" fill="#0000fc"/><path d="m13.9875 6.735-3.75-1.31251c-.315-.1125-.66-.1125-.975-.0075l-2.9925 1.005c-.6075.21-1.02.78001-1.02 1.42501v8.8875c0 1.0575 1.0575 1.7775 2.04 1.395l2.1975-.855c.165-.0675.3525-.0675.5175-.0075l3.75 1.3125c.315.1125.66.1125.975.0075l2.9925-1.005c.6075-.2025 1.02-.78 1.02-1.425v-8.8875c0-1.0575-1.0575-1.77751-2.04-1.39501l-2.1975.855c-.165.06-.345.06751-.5175.00751zm.2625 10.4325-4.5-1.5825v-8.7525l4.5 1.5825z" fill="#fff"/></svg>