<svg fill="none" height="18" viewBox="0 0 18 18" width="18" xmlns="http://www.w3.org/2000/svg" xmlns:xlink="http://www.w3.org/1999/xlink"><clipPath id="a"><path d="m2.25 2.25h13.5v13.5h-13.5z"/></clipPath><g clip-path="url(#a)"><path d="m9 15.75c3.727 0 6.75-3.023 6.75-6.75 0-3.72697-3.023-6.75-6.75-6.75-3.72697 0-6.75 3.02303-6.75 6.75 0 3.727 3.02303 6.75 6.75 6.75zm-.48216-10.60714c0-.26519.21697-.48215.48216-.48215s.48216.21696.48216.48215v3.62572l2.22994 1.78392c.2073.1663.241.4701.0747.6774-.094.1181-.2338.1808-.3761.1808-.1061 0-.2121-.0338-.3013-.1061l-2.41072-1.92852c-.11331-.09162-.1808-.22901-.1808-.37608v-3.85714z" fill="#000" fill-opacity=".38"/></g></svg>