<svg fill="none" height="23" viewBox="0 0 240 23" width="240" xmlns="http://www.w3.org/2000/svg" xmlns:xlink="http://www.w3.org/1999/xlink"><clipPath id="a"><path d="m0 0h240v23h-240z"/></clipPath><g clip-path="url(#a)" clip-rule="evenodd" fill="#fff" fill-rule="evenodd"><path d="m13.8878 3.18119h-2.4223c-.3021.00509-.5952.1028-.8383.27955s-.4242.42374-.5182.70662l-6.45942 19.08714h-3.64958l7.16996-20.45505c.26741-.80121.7808-1.50087 1.46926-2.002337.68846-.501466 1.51798-.7799938 2.37408-.797113h5.7166c.8586.00761694 1.6927.282499 2.383.785321.6903.502819 1.2015 1.207819 1.4604 2.014129l7.2022 20.20055h-3.4881l-6.6532-19.08714c-.1308-.23033-.3237-.42057-.5573-.54969-.2337-.12912-.4991-.1921-.7668-.18198"/><path d="m102.931 11.9931h15.018c.594-.0084 1.161-.2467 1.578-.6634s.651-.9783.651-1.56345v-4.5491c-.041-.55416-.294-1.07243-.708-1.45027-.413-.37785-.957-.58715-1.521-.58569h-15.018zm10.109 2.9903 6.459 8.0166h3.876l-6.459-8.0166h1.582c1.288-.0084 2.52-.5182 3.428-1.4181.907-.9 1.417-2.117 1.417-3.3855v-5.3762c0-1.25763-.5-2.4652-1.394-3.36336-.894-.898153-2.11-1.415254-3.386-1.44024h-18.8941v23h3.2301v-8.0166z"/><path d="m205.926 0h18.7v3.18119h-17.924c-.191-.02107-.384.00092-.564.06431-.181.06338-.344.16648-.478.30146-.134.13497-.235.29826-.295.47743s-.078.36951-.052.55652v1.65422c.005.29759.104.58619.284.82566.179.23947.43.41789.717.51044l15.696 5.15357c.816.2692 1.528.7808 2.037 1.4643.509.6836.79 1.5056.806 2.3531v2.5449c0 .4999-.101.9947-.296 1.4561s-.481.8801-.842 1.2321c-.36.3519-.787.6301-1.257.8185-.47.1883-.974.2832-1.481.279h-18.668v-2.8631h17.86c.195.0209.392-.002.576-.067.185-.065.352-.1705.488-.3084.137-.1378.241-.3046.303-.4876.061-.1829.08-.3774.055-.5686v-1.6542c-.006-.2976-.105-.5862-.284-.8256-.18-.2395-.43-.4179-.718-.5105l-15.664-5.3126c-.837-.2659-1.565-.78972-2.077-1.49425-.511-.70453-.78-1.55242-.765-2.41857v-2.54495c0-1.00696.404-1.97315 1.124-2.68815.72-.714995 1.697-1.12088869 2.719-1.12928"/><path d="m39.3056 0h18.8293v3.18119h-18.0218c-.1904-.02107-.3832.00092-.5637.06431-.1805.06338-.3439.16648-.4778.30146-.1339.13497-.2348.29826-.295.47743s-.0781.36951-.0523.55652v1.65422c.0051.29759.1044.58619.2838.82566s.4302.41789.7174.51044l15.6641 5.15357c.7979.2851 1.4884.8034 1.979 1.4856.4906.6823.7579 1.4958.7663 2.3318v2.5449c0 1.004-.405 1.9669-1.1257 2.6769-.7208.7099-1.6984 1.1088-2.7177 1.1088h-18.6031v-2.8631h17.8603c.1894.0108.379-.0196.5552-.0891s.3347-.1763.4642-.313.2269-.2998.2851-.4777c.0583-.1779.076-.3663.052-.5518v-1.6542c-.0052-.2976-.1044-.5862-.2839-.8256-.1794-.2395-.4302-.4179-.7174-.5105l-15.5995-5.3126c-.825-.2769-1.5389-.80547-2.0383-1.50903-.4995-.70356-.7584-1.54552-.7392-2.40379v-2.54495c-.0003-.99613.3947-1.95292 1.1007-2.66614.706-.713228 1.667-1.1263869 2.678-1.15129"/><path d="m156.674 0v3.18119h-18.571v6.80775h17.925v3.02216h-17.925v5.567c-.02.19.003.3819.067.5622.064.1802.168.3444.303.4809.136.1366.3.2421.482.3093.181.0671.375.0941.569.0792h17.15v2.9903h-17.796c-.531.022-1.06-.0637-1.556-.2517-.496-.1881-.947-.4744-1.325-.8414-.379-.3669-.677-.8065-.876-1.2916-.199-.485-.294-1.0052-.28-1.5282v-19.0871z"/><path d="m171.175 23h17.408c.505-.0164 1.001-.1307 1.461-.3363s.874-.4985 1.219-.8619.614-.7902.791-1.256c.178-.4658.26-.9615.243-1.4587v-19.0871h-3.23v18.5781c.02.19-.003.3819-.067.5622-.064.1802-.168.3444-.303.4809-.136.1366-.3.2421-.482.3093-.181.0671-.376.0941-.569.0792h-15.793c-.196.0199-.394-.0034-.579-.0683-.186-.0649-.354-.1697-.494-.3068-.139-.1371-.245-.3031-.311-.4859-.066-.1827-.09-.3777-.07-.5706v-18.5781h-3.229v19.0871c-.019.5214.073 1.041.268 1.5259.195.485.49.9251.866 1.2925s.825.6543 1.319.8426c.494.1884 1.022.2741 1.552.2519z"/><path d="m76.6087 0h13.8877v2.99032h-10.6257v20.00968h-3.262v-20.00968h-10.6258v-2.99032"/><path d="m237.255 5.05821c-.293.00443-.583-.04956-.854-.15871-.27-.10915-.516-.2712-.721-.47635s-.366-.44915-.473-.71727-.157-.55478-.149-.84269c0-.57372.232-1.12394.644-1.52962.411-.405679.97-.633588 1.553-.633588.582 0 1.141.227909 1.552.633588.412.40568.644.9559.644 1.52962.009.28791-.042.57457-.149.84269s-.268.51212-.473.71727-.451.3672-.721.47635c-.271.10915-.561.16314-.853.15871zm-2.746-2.19502c0 .71715.29 1.40493.804 1.91203.515.5071 1.213.79198 1.942.79198.728 0 1.426-.28488 1.941-.79198s.804-1.19488.804-1.91203-.289-1.40492-.804-1.912024c-.515-.5071-1.213-.791986-1.941-.791986-.729 0-1.427.284886-1.942.791986-.514.507104-.804 1.194874-.804 1.912024zm2.229 0v-.98617h.743c.065-.00066.129.01259.189.03884s.113.06488.156.11323c.042.04835.074.10529.093.1669.018.06161.023.12643.014.19002.004.06111-.004.12246-.025.18022s-.053.11069-.096.15548c-.042.04478-.093.08046-.151.10481-.057.02434-.118.03683-.18.03667zm-.517 1.36791h.517v-1.04979h.226l.936.92254h.614l-.969-.92254c.119-.0041.236-.03123.344-.07983s.205-.11771.286-.20339c.081-.08569.144-.18625.186-.29595.041-.1097.061-.22638.056-.34338.005-.1238-.016-.24719-.062-.36282-.045-.11562-.113-.22111-.2-.31018-.088-.08906-.193-.15987-.308-.20821-.116-.04834-.241-.07322-.366-.07314h-1.26z"/></g></svg>